<?xml version="1.0" standalone="no"?>
<!DOCTYPE svg PUBLIC "-//W3C//DTD SVG 20010904//EN"
 "http://www.w3.org/TR/2001/REC-SVG-20010904/DTD/svg10.dtd">
<svg version="1.0" xmlns="http://www.w3.org/2000/svg"
 width="1777.000000pt" height="1777.000000pt" viewBox="0 0 1777.000000 1777.000000"
 preserveAspectRatio="xMidYMid meet">
<metadata>
Created by potrace 1.11, written by Peter Selinger 2001-2013
</metadata>
<g transform="translate(0.000000,1777.000000) scale(0.100000,-0.100000)"
fill="#000000" stroke="none">
<path d="M3751 13678 c6 -18 12 -40 14 -48 2 -8 36 -132 75 -275 39 -143 78
-282 85 -310 7 -27 30 -108 50 -180 20 -71 38 -137 40 -145 1 -8 9 -35 16 -60
15 -53 10 -37 49 -180 17 -63 33 -122 35 -130 2 -8 20 -73 40 -145 20 -71 38
-137 40 -145 3 -8 14 -49 25 -90 12 -41 30 -106 40 -145 10 -38 45 -169 79
-290 72 -263 163 -597 176 -645 0 -3 8 -30 17 -60 9 -30 30 -109 48 -175 17
-66 36 -133 41 -150 5 -16 32 -113 59 -215 28 -102 56 -207 64 -235 82 -283
104 -383 90 -394 -5 -3 -52 -55 -104 -116 -52 -60 -97 -112 -100 -115 -3 -3
-46 -52 -95 -110 -50 -58 -92 -107 -95 -110 -3 -3 -46 -52 -95 -110 -50 -58
-95 -110 -101 -116 -5 -6 -30 -35 -55 -64 -24 -29 -51 -60 -60 -69 -8 -9 -73
-83 -144 -166 -71 -82 -131 -152 -134 -155 -4 -3 -58 -66 -121 -140 -154 -180
-162 -190 -185 -214 -11 -12 -47 -53 -80 -92 -87 -102 -238 -278 -245 -284 -3
-3 -62 -70 -130 -150 -69 -80 -129 -150 -135 -156 -5 -6 -28 -32 -50 -59 -22
-26 -47 -55 -56 -64 -15 -16 -176 -202 -220 -255 -13 -16 -29 -34 -34 -40 -12
-12 -79 -90 -270 -311 -71 -82 -132 -152 -135 -155 -5 -5 -150 -173 -210 -244
-14 -16 -32 -37 -40 -46 -8 -8 -53 -60 -100 -115 -47 -55 -89 -105 -95 -111
-5 -6 -35 -39 -65 -74 -30 -35 -116 -134 -190 -220 -74 -85 -175 -202 -225
-260 -49 -58 -94 -110 -100 -116 -5 -6 -32 -37 -60 -69 -27 -32 -60 -70 -73
-84 -13 -14 -40 -46 -60 -70 -20 -25 -46 -54 -57 -66 -11 -11 -31 -34 -45 -50
-14 -17 -111 -129 -215 -250 -104 -121 -199 -231 -210 -244 -11 -13 -25 -29
-30 -35 -6 -6 -39 -45 -75 -86 -36 -41 -67 -77 -70 -80 -3 -3 -46 -52 -95
-110 -132 -154 -139 -162 -154 -177 -7 -8 -11 -16 -9 -18 2 -3 67 18 144 46
76 28 144 52 149 54 6 1 17 5 25 8 8 3 40 15 70 25 117 41 347 124 380 137 19
7 107 39 195 70 88 31 189 67 225 80 92 33 410 147 741 265 156 56 347 124
424 152 216 78 377 135 530 190 213 75 220 78 525 188 332 119 351 126 1075
384 303 108 566 203 585 211 19 8 139 50 265 95 127 44 237 83 245 87 8 3 20
7 25 9 6 1 53 18 105 37 52 19 142 51 200 72 58 20 121 43 140 50 19 8 132 48
250 91 118 42 270 96 337 120 313 112 390 140 723 259 195 70 506 181 690 247
493 177 715 256 810 290 91 31 173 61 230 83 19 8 82 30 140 51 124 43 290
102 490 174 80 29 170 61 200 72 30 10 84 30 120 43 59 22 200 72 490 175 58
21 227 81 375 135 149 53 329 117 400 142 72 26 136 51 143 56 7 5 25 28 41
51 34 50 643 917 755 1076 45 63 169 240 276 393 107 152 227 323 267 380 165
234 214 310 206 317 -7 7 -286 171 -421 247 -24 13 -163 94 -309 179 -146 85
-267 154 -269 154 -2 0 -32 17 -66 38 -35 21 -88 52 -118 69 -30 17 -95 54
-145 83 -49 29 -110 64 -135 78 -25 13 -70 39 -100 57 -30 18 -122 72 -205
120 -82 48 -153 90 -157 94 -5 4 65 -6 153 -21 89 -15 180 -30 203 -33 23 -3
64 -10 91 -15 28 -5 66 -11 85 -14 19 -3 74 -12 123 -21 48 -8 104 -17 123
-20 20 -2 44 -6 53 -9 9 -3 36 -7 61 -10 25 -3 56 -8 70 -11 25 -5 90 -15 125
-20 11 -2 106 -17 210 -35 105 -17 201 -33 215 -35 14 -2 160 -27 326 -55 311
-52 338 -55 331 -42 -3 4 -8 84 -11 177 -4 94 -9 211 -11 260 -2 50 -7 155
-10 235 -16 424 -14 404 -33 418 -9 8 -37 24 -62 36 -50 26 -219 114 -355 186
-249 131 -463 244 -580 305 -137 71 -273 143 -390 205 -38 21 -128 68 -200
105 -71 37 -161 84 -200 105 -107 57 -253 134 -435 228 -91 47 -169 88 -175
92 -5 4 -85 46 -176 94 l-166 86 -3351 0 -3351 0 10 -32z"/>
<path d="M13867 12023 c-2 -4 -3 -33 -2 -63 3 -59 15 -378 20 -551 2 -58 6
-189 10 -290 4 -101 8 -224 8 -274 l1 -90 -92 -150 c-109 -177 -92 -149 -190
-310 -135 -222 -418 -689 -433 -714 -8 -14 -18 -30 -22 -35 -7 -10 -317 -522
-357 -591 -10 -16 -69 -113 -131 -215 -62 -102 -132 -218 -156 -259 l-44 -73
46 7 c26 3 55 8 65 10 9 2 35 6 56 10 72 11 99 15 124 20 14 3 39 7 55 10 166
26 620 103 651 109 12 2 39 7 60 10 22 4 107 18 189 32 83 14 161 27 175 29
14 2 41 6 60 10 19 4 46 8 60 10 14 2 214 36 445 75 231 39 431 73 445 75 14
2 68 11 120 20 52 9 109 18 125 21 17 2 55 9 85 14 30 5 71 12 90 15 19 3 62
10 95 16 33 6 71 13 85 15 14 2 41 7 60 10 19 3 49 8 65 11 17 2 66 11 110 18
44 8 98 17 120 20 22 3 51 8 65 10 14 3 41 7 60 10 19 3 58 10 85 15 28 6 64
12 80 14 66 10 112 17 155 26 25 5 77 14 115 20 39 6 97 16 130 22 33 5 74 12
90 15 17 3 77 12 134 22 l104 17 141 -114 c78 -62 150 -121 161 -130 19 -16
174 -142 395 -321 58 -47 111 -91 118 -98 8 -7 23 -18 34 -24 18 -10 19 -8 14
18 -3 15 -8 48 -11 73 -3 25 -10 70 -15 100 -17 98 -34 211 -46 300 -2 19 -7
46 -9 60 -3 14 -7 43 -10 65 -3 22 -7 51 -10 65 -3 13 -7 42 -10 65 -14 96
-25 168 -31 199 -2 10 -12 80 -24 155 -11 75 -22 147 -24 161 -3 14 -7 45 -10
70 -6 43 -9 66 -21 135 -3 17 -9 59 -15 95 -19 130 -21 147 -40 265 -10 66
-21 140 -25 165 -3 25 -10 70 -15 100 -6 30 -13 75 -16 100 -3 25 -12 83 -20
130 -7 47 -16 110 -20 140 -3 30 -7 57 -9 60 -2 3 -7 33 -10 65 -4 33 -12 65
-18 72 -9 8 -297 89 -457 127 -8 2 -105 27 -215 56 -110 29 -209 54 -219 56
-10 2 -33 8 -50 13 -29 9 -374 99 -406 106 -8 2 -42 11 -75 20 -59 16 -261 68
-615 160 -96 25 -236 62 -310 81 -74 20 -142 38 -150 40 -38 9 -404 104 -475
124 -44 12 -87 23 -95 25 -8 1 -87 22 -175 45 -88 23 -167 43 -175 45 -8 2
-22 6 -31 10 -10 3 -19 3 -22 -2z"/>
</g>
</svg>
